<svg width="1492" height="418" viewBox="0 0 1492 418" fill="none" xmlns="http://www.w3.org/2000/svg">
<g clip-path="url(#clip0_73_13)">
<path d="M548.957 418C602.221 418 650.86 398.012 687.762 365.197L642.754 320.2C617.439 341.58 584.715 354.457 548.957 354.457C468.587 354.457 403.437 289.323 403.437 208.975C403.437 128.627 468.587 63.493 548.957 63.493C584.814 63.493 617.589 76.4701 642.953 97.9493L687.961 52.9523C651.009 20.0373 602.32 0 548.907 0C433.476 0 339.878 93.5739 339.878 208.975C339.878 324.376 433.476 417.95 548.907 417.95L548.957 418Z" fill="white"/>
<path d="M548.956 332.083C578.498 332.083 605.603 321.642 626.839 304.289L579.642 257.105C570.789 262.773 560.246 266.104 548.907 266.104C517.326 266.104 491.763 240.498 491.763 208.975C491.763 177.452 517.376 151.846 548.907 151.846C560.345 151.846 570.939 155.227 579.891 160.995L627.038 113.86C605.802 96.408 578.598 85.917 548.907 85.917C480.921 85.917 425.817 141.007 425.817 208.975C425.817 276.943 480.921 332.033 548.907 332.033L548.956 332.083Z" fill="white"/>
<path d="M757.986 208.975C757.986 155.675 737.993 107.098 705.169 70.1556L596.999 178.298C602.669 187.198 606.05 197.689 606.05 209.025C606.05 220.361 602.669 231.101 596.85 240.001L704.92 348.043C737.893 311.101 757.936 262.425 757.936 209.025L757.986 208.975Z" fill="white"/>
<path d="M548.658 240.896C566.292 240.896 580.587 226.604 580.587 208.975C580.587 191.346 566.292 177.055 548.658 177.055C531.024 177.055 516.729 191.346 516.729 208.975C516.729 226.604 531.024 240.896 548.658 240.896Z" fill="white"/>
<path d="M311.778 65.6807L311.579 76.3209V106.998C310.983 124.948 301.036 134.643 282.734 134.892H118.713C83.1044 134.892 74.5005 144.339 74.5005 181.181V236.868C74.5005 273.711 83.1044 283.108 118.763 283.108H287.508C302.826 284.849 311.132 294.295 311.729 310.654V352.319H115.928C31.9785 352.319 0 322.835 0 244.227V173.773C0 95.165 31.8791 65.6807 115.829 65.6807H311.778Z" fill="white"/>
<path d="M1042.51 65.631C1106.82 65.631 1132.23 95.165 1132.23 150.404V175.364C1132.23 220.411 1115.47 247.857 1074.54 256.856L1140.53 340.386L1149.54 352.22H1084.39C1068.27 351.225 1059.72 347.099 1052.71 338.994L997.949 264.563H883.314V323.133C883.015 342.077 872.82 352.12 853.623 352.12H849.943V352.319H808.763L808.614 65.6807H1042.51V65.5813V65.631ZM888.088 132.107C884.806 132.107 883.214 133.748 883.214 137.427V206.241H1027.79C1050.32 206.241 1057.73 197.241 1057.68 177.999V160.398C1057.68 141.156 1050.27 132.157 1027.79 132.157H888.088V132.107Z" fill="white"/>
<path d="M1491.95 314.532C1491.75 295.439 1481.66 285.296 1462.61 285.197H1301.92C1269.74 285.197 1259.25 277.54 1257.51 247.707C1257.16 242.089 1261.64 237.316 1267.26 237.316H1473.75C1479.12 237.316 1483.5 232.94 1483.5 227.571V188.093C1483.5 182.723 1479.12 178.347 1473.75 178.347H1267.26C1261.59 178.347 1257.11 173.524 1257.51 167.906C1259.4 140.56 1270.24 133.301 1301.82 133.301H1462.16C1481.46 133.301 1491.7 123.108 1491.85 103.966V75.5254C1491.85 70.1556 1487.47 65.7802 1482.1 65.7802H1300.68C1216.73 65.7802 1184.8 95.2644 1184.8 173.872V244.326C1184.8 322.934 1216.78 352.419 1300.78 352.419H1482.25C1487.67 352.419 1492.1 347.994 1492 342.524V314.631L1491.95 314.532Z" fill="white"/>
</g>
<defs>
<clipPath id="clip0_73_13">
<rect width="1492" height="418" fill="white"/>
</clipPath>
</defs>
</svg>
