<svg width="308" height="287" viewBox="0 0 308 287" fill="none" xmlns="http://www.w3.org/2000/svg">
<path d="M307.95 248.752C307.751 229.659 297.655 219.516 278.607 219.416H117.919C85.7415 219.416 75.2477 211.759 73.5071 181.927C73.1589 176.309 77.6349 171.536 83.2548 171.536H289.748C295.119 171.536 299.495 167.16 299.495 161.79V122.312C299.495 116.943 295.119 112.567 289.748 112.567H83.2548C77.5852 112.567 73.1092 107.744 73.5071 102.126C75.3969 74.7796 86.2388 67.5204 117.819 67.5204H278.16C297.456 67.5204 307.701 57.3277 307.85 38.1853V9.74522C307.85 4.3754 303.474 0 298.103 0H116.676C32.7257 0 0.796875 29.4842 0.796875 108.092V178.546C0.796875 257.154 32.7754 286.639 116.775 286.639H298.252C303.673 286.639 308.099 282.213 308 276.744V248.851L307.95 248.752Z" fill="white"/>
</svg>
