<svg width="419" height="418" viewBox="0 0 419 418" fill="none" xmlns="http://www.w3.org/2000/svg">
<path d="M209.079 418C262.343 418 310.983 398.012 347.885 365.197L302.876 320.2C277.562 341.58 244.837 354.457 209.079 354.457C128.71 354.457 63.5592 289.323 63.5592 208.975C63.5592 128.627 128.71 63.493 209.079 63.493C244.937 63.493 277.711 76.4701 303.075 97.9493L348.084 52.9523C311.132 20.0373 262.443 0 209.029 0C93.5982 0 0 93.5739 0 208.975C0 324.376 93.5982 417.95 209.029 417.95L209.079 418Z" fill="white"/>
<path d="M209.079 332.083C238.621 332.083 265.725 321.642 286.961 304.289L239.764 257.105C230.912 262.773 220.368 266.104 209.029 266.104C177.449 266.104 151.886 240.498 151.886 208.975C151.886 177.452 177.498 151.846 209.029 151.846C220.468 151.846 231.061 155.227 240.013 160.995L287.16 113.86C265.924 96.408 238.72 85.917 209.029 85.917C141.044 85.917 85.9392 141.007 85.9392 208.975C85.9392 276.943 141.044 332.033 209.029 332.033L209.079 332.083Z" fill="white"/>
<path d="M418.108 208.975C418.108 155.675 398.115 107.098 365.291 70.1555L257.121 178.298C262.791 187.198 266.173 197.689 266.173 209.025C266.173 220.361 262.791 231.101 256.972 240.001L365.042 348.043C398.016 311.101 418.058 262.425 418.058 209.025L418.108 208.975Z" fill="white"/>
<path d="M418.108 208.975C418.108 155.675 398.115 107.098 365.291 70.1555L257.121 178.298C262.791 187.198 266.173 197.689 266.173 209.025C266.173 220.361 262.791 231.101 256.972 240.001L365.042 348.043C398.016 311.101 418.058 262.425 418.058 209.025L418.108 208.975Z" fill="#5E94C6"/>
<path d="M208.781 240.896C226.414 240.896 240.709 226.604 240.709 208.975C240.709 191.346 226.414 177.055 208.781 177.055C191.147 177.055 176.852 191.346 176.852 208.975C176.852 226.604 191.147 240.896 208.781 240.896Z" fill="#5E94C6"/>
</svg>
