<?xml version="1.0" encoding="UTF-8"?>
<svg xmlns="http://www.w3.org/2000/svg" xmlns:xlink="http://www.w3.org/1999/xlink" viewBox="0 0 171.65 171.65">
  <defs>
    <style>
      .cls-1 {
        fill: url(#linear-gradient);
      }

      .cls-1, .cls-2, .cls-3, .cls-4, .cls-5 {
        stroke-width: 0px;
      }

      .cls-6 {
        isolation: isolate;
      }

      .cls-2 {
        fill: url(#linear-gradient-4);
        mix-blend-mode: multiply;
      }

      .cls-3 {
        fill: url(#linear-gradient-2);
      }

      .cls-4 {
        fill: url(#linear-gradient-3);
      }

      .cls-5 {
        fill: url(#Gradiente_sem_nome_17);
      }
    </style>
    <linearGradient id="Gradiente_sem_nome_17" data-name="Gradiente sem nome 17" x1="0" y1="85.83" x2="171.65" y2="85.83" gradientUnits="userSpaceOnUse">
      <stop offset="0" stop-color="#ea541e"/>
      <stop offset=".38" stop-color="#ef762c"/>
      <stop offset=".7" stop-color="#f4993b"/>
    </linearGradient>
    <linearGradient id="linear-gradient" x1="35.77" y1="85.83" x2="135.88" y2="85.83" gradientUnits="userSpaceOnUse">
      <stop offset="0" stop-color="#2360ab"/>
      <stop offset=".25" stop-color="#09478a"/>
      <stop offset=".75" stop-color="#2261ac"/>
      <stop offset="1" stop-color="#8bb8e4"/>
    </linearGradient>
    <linearGradient id="linear-gradient-2" x1="128.4" y1="122.02" x2="-16.7" y2="141.2" xlink:href="#linear-gradient"/>
    <linearGradient id="linear-gradient-3" x1="40.13" y1="42.25" x2="133.51" y2="42.25" xlink:href="#linear-gradient"/>
    <linearGradient id="linear-gradient-4" x1="45.03" y1="68.69" x2="91.59" y2="16.03" gradientUnits="userSpaceOnUse">
      <stop offset="0" stop-color="#010101"/>
      <stop offset="1" stop-color="#010101" stop-opacity="0"/>
    </linearGradient>
  </defs>
  <g class="cls-6">
    <g id="Camada_2" data-name="Camada 2">
      <g id="Camada_1-2" data-name="Camada 1">
        <g>
          <rect class="cls-5" width="171.65" height="171.65" rx="9.36" ry="9.36"/>
          <g>
            <g>
              <path class="cls-1" d="M130.03,92.77c-3.9-5.35-8.52-9.43-13.88-12.23-5.36-2.8-12.12-5.66-20.27-8.58-3.92-1.35-7.27-2.63-10.09-3.84-2.53-1.09-4.62-2.13-6.26-3.11,0,0,0,0-.04-.02-3.45-2.07-5.17-4.92-5.17-8.57,0-2.68.66-4.74,1.99-6.19.12-.13.25-.27.38-.39,1.58-1.46,3.78-2.19,6.58-2.19,3.29,0,5.94.97,7.95,2.92,2,1.95,3.25,4.93,3.74,8.95h38.54c-.85-12.66-5.69-22.49-14.52-29.5-8.83-7-20.67-10.51-35.53-10.51-9.14,0-17.3,1.5-24.49,4.48-5.74,2.39-10.51,5.66-14.3,9.83-.96,1.05-1.85,2.15-2.69,3.32-.68.94-1.29,1.91-1.85,2.92-2.91,5.16-4.35,11.09-4.35,17.82,0,8.41,1.91,15.28,5.75,20.64,2.51,3.5,5.32,6.44,8.46,8.78,1.66,1.26,3.41,2.35,5.24,3.28,5.3,2.68,12.02,5.42,20.19,8.22,3.55,1.18,6.65,2.32,9.31,3.42h0c3.09,1.26,5.58,2.48,7.48,3.61,3.53,2.14,5.3,5.15,5.3,9.05,0,2.92-.88,5.17-2.64,6.76-1.77,1.58-4.24,2.38-7.4,2.38-3.53,0-6.52-1.1-8.95-3.29-2.44-2.19-3.84-5.54-4.2-10.04h-38.18c.85,13.28,6.12,23.51,15.8,30.69,9.68,7.19,22.01,10.77,36.99,10.77,9.87,0,18.32-1.7,25.39-5.11,7.06-3.41,12.42-8.04,16.07-13.89,1.18-1.88,2.17-3.84,2.97-5.86,1.68-4.26,2.52-8.81,2.52-13.69,0-8.52-1.95-15.47-5.85-20.83Z"/>
              <path class="cls-3" d="M133.36,127.28c-.79,2.02-1.78,3.98-2.96,5.86-3.65,5.85-9.01,10.48-16.07,13.89-7.07,3.41-15.53,5.11-25.39,5.11-14.98,0-27.31-3.59-36.99-10.77-9.69-7.19-14.96-17.42-15.8-30.69h38.18c.37,4.51,1.76,7.85,4.2,10.04,2.43,2.2,5.41,3.29,8.95,3.29,3.16,0,5.63-.79,7.4-2.38,1.76-1.58,2.64-3.84,2.64-6.76,0-3.9-1.76-6.91-5.3-9.05-1.9-1.14-4.39-2.35-7.48-3.61.61.16,29.5,7.97,48.62,25.06Z"/>
              <path class="cls-4" d="M133.51,59.52h-38.54c-.49-4.02-1.74-7-3.74-8.95-2.01-1.95-4.67-2.92-7.95-2.92-.43,0-.85.02-1.25.06-2.22.18-3.99.89-5.33,2.13-1.58,1.46-2.37,3.65-2.37,6.58,0,3.64,1.73,6.49,5.17,8.57-1.06-.45-27.82-11.92-39.36-24.92.56-1.01,1.18-1.98,1.85-2.92,4.14-5.78,9.8-10.17,16.99-13.15,2.92-1.22,6.01-2.18,9.25-2.89,4.74-1.06,9.81-1.58,15.23-1.58,14.85,0,26.69,3.51,35.53,10.51,8.83,7.01,13.67,16.84,14.52,29.5Z"/>
            </g>
            <path class="cls-2" d="M79.5,64.99c-1.06-.45-27.82-11.92-39.36-24.92.56-1.01,1.18-1.98,1.85-2.92,4.14-5.78,9.8-10.17,16.99-13.15,2.92-1.22,6.01-2.18,9.25-2.89,4.91,5.54,8.29,12.24,11.1,19.08,1.02,2.47,1.97,4.97,2.7,7.53-2.22.18-3.99.89-5.33,2.13-1.58,1.46-2.37,3.65-2.37,6.58,0,3.64,1.73,6.49,5.17,8.57Z"/>
          </g>
        </g>
      </g>
    </g>
  </g>
</svg>