<svg width="610" height="109" viewBox="0 0 610 109" fill="none" xmlns="http://www.w3.org/2000/svg">
<path d="M413.853 1.34998C384.403 1.34998 360.533 25.35 360.533 54.96C360.533 84.57 384.403 108.57 413.853 108.57C443.303 108.57 467.173 84.57 467.173 54.96C467.173 25.35 443.303 1.34998 413.853 1.34998ZM413.853 74.19C403.293 74.19 394.723 65.58 394.723 54.96C394.723 44.34 403.283 35.73 413.853 35.73C424.423 35.73 432.983 44.34 432.983 54.96C432.983 65.58 424.423 74.19 413.853 74.19Z" fill="white"/>
<path d="M413.893 67.84C406.823 67.84 401.093 62.08 401.093 54.97C401.093 47.86 406.823 42.1 413.893 42.1C420.963 42.1 426.703 47.86 426.703 54.97C426.703 62.08 420.963 67.84 413.893 67.84Z" fill="white"/>
<path d="M52.8331 2.94006C49.2331 2.94006 47.633 5.23005 48.623 8.77005L54.943 29.3501L62.7831 2.94006H52.823H52.8331Z" fill="white"/>
<path d="M52.8331 2.94006C49.2331 2.94006 47.633 5.23005 48.623 8.77005L54.943 29.3501L62.7831 2.94006H52.823H52.8331Z" fill="white"/>
<path d="M136.613 2.94C140.213 2.94 141.813 5.22999 140.813 8.76999L111.983 102.62C111.183 105.53 108.983 106.99 106.183 106.99H84.3329C81.5329 106.99 79.3329 105.53 78.5329 102.62L69.2829 72.08L59.9428 102.62C59.1428 105.53 56.9429 106.99 54.1429 106.99H34.9229C32.1229 106.99 29.9129 105.53 29.1129 102.62L0.292882 8.76999C-0.707118 5.22999 0.892834 2.94 4.49283 2.94H26.1129C28.9129 2.94 30.9129 4.19 31.7129 7.31L47.2829 67.64L58.6629 29.37L66.4928 2.92999H72.1529C74.9529 2.92999 76.9529 4.39002 77.7629 7.30002L94.7329 64.11L109.393 7.30002C110.193 4.18002 111.993 2.92999 115.003 2.92999H136.623L136.613 2.94ZM578.213 0.0299988C597.833 0.0299988 609.243 12.93 609.243 36.86V101.79C609.243 105.12 607.443 107 604.233 107H584.213C581.013 107 579.213 105.13 579.213 101.79V39.57C579.213 31.25 574.403 28.75 568.803 28.75C562.793 28.75 557.193 31.87 557.193 42.06V101.78C557.193 105.11 555.393 106.99 552.193 106.99H532.173C528.973 106.99 527.173 105.12 527.173 101.78V39.56C527.173 31.24 522.363 28.74 516.763 28.74C510.753 28.74 505.153 31.86 505.153 42.05V101.77C505.153 105.1 503.353 106.98 500.143 106.98H480.123C476.923 106.98 475.113 105.11 475.113 101.77V8.13C475.113 4.8 476.913 2.92999 480.123 2.92999H500.143C503.353 2.92999 505.153 4.8 505.153 8.13V12.37C509.743 5.17 517.713 0.0100098 528.173 0.0100098C538.633 0.0100098 546.343 4.26001 551.383 12.39C557.873 5.17001 566.213 0 578.223 0L578.213 0.0299988ZM234.703 76.61C237.053 76.61 238.723 77.68 239.153 79.35C230.323 96.7 212.383 108.58 191.673 108.58C173.343 108.58 157.183 99.28 147.583 85.12C142.433 76.54 139.623 66.22 139.623 54.96C139.623 42.73 143.063 31.62 149.143 22.62C158.873 9.7 174.303 1.35001 191.663 1.35001C211.353 1.35001 228.533 12.09 237.773 28.05C241.593 35.9 243.713 45.04 243.713 54.96C243.713 57.67 243.513 60.16 243.313 62.66C242.913 65.99 240.913 67.44 237.913 67.44H171.063C174.703 79.8 184.043 84.71 194.473 84.71C200.083 84.71 205.683 82.63 209.283 79.51C211.283 77.84 212.883 76.8 215.493 76.8L234.713 76.59L234.703 76.61ZM193.063 27.71C181.813 27.71 174.023 33.35 170.933 43.73H213.823C210.723 31.89 201.903 27.71 193.063 27.71ZM349.403 67.45C352.803 67.45 354.803 69.74 353.603 73.28C346.003 94 326.443 108.58 303.493 108.58C286.113 108.58 270.683 100.21 260.943 87.27C254.833 78.28 251.303 67.18 251.303 54.96C251.303 42.74 254.823 31.64 260.943 22.65C270.683 9.70999 286.113 1.35001 303.493 1.35001C326.443 1.35001 346.003 15.93 353.523 36.38C354.813 40.19 352.803 42.47 349.403 42.47H327.383C324.783 42.47 322.973 41.22 321.373 38.93C317.773 33.73 311.563 30.81 304.353 30.81C291.343 30.81 281.333 40.59 281.333 54.95C281.333 69.31 291.343 79.09 304.353 79.09C311.563 79.09 317.763 76.18 321.373 71.18C322.973 68.69 324.583 67.44 327.383 67.44H349.403V67.45Z" fill="white"/>
</svg>
