<svg width="201" height="100" viewBox="0 0 201 100" fill="none" xmlns="http://www.w3.org/2000/svg">
<path d="M88.834 21.0414L63.834 12.7081H63.5423C63.3484 12.6886 63.1529 12.6886 62.959 12.7081H62.0007H61.459H61.1673L37.5007 20.8331L13.834 12.7081C13.2074 12.5015 12.5407 12.4466 11.8887 12.5481C11.2368 12.6495 10.6182 12.9043 10.084 13.2914C9.54549 13.6748 9.10594 14.1809 8.80164 14.7677C8.49735 15.3546 8.33706 16.0054 8.334 16.6664V74.9998C8.33174 75.8733 8.60408 76.7254 9.11251 77.4357C9.62094 78.146 10.3397 78.6786 11.1673 78.9581L36.1673 87.2914C37.0067 87.5651 37.9113 87.5651 38.7507 87.2914V87.2914L62.5007 79.3748L86.1673 87.4998C86.6097 87.5598 87.0582 87.5598 87.5007 87.4998C88.3719 87.512 89.2223 87.2335 89.9173 86.7081C90.4558 86.3247 90.8954 85.8187 91.1997 85.2318C91.504 84.645 91.6643 83.9942 91.6673 83.3331V24.9998C91.6696 24.1263 91.3973 23.2741 90.8888 22.5638C90.3804 21.8535 89.6616 21.321 88.834 21.0414V21.0414ZM33.334 77.5414L16.6673 71.9998V22.4581L33.334 27.9998V77.5414ZM58.334 71.9998L41.6673 77.5414V27.9998L58.334 22.4581V71.9998ZM83.334 77.5414L66.6673 71.9998V22.4581L83.334 27.9998V77.5414Z" fill="#FAFAFA"/>
<path d="M125.119 44V26.5455H128.809V40.9574H136.292V44H125.119ZM144.582 44.2557C143.259 44.2557 142.114 43.9744 141.148 43.4119C140.188 42.8437 139.446 42.054 138.923 41.0426C138.401 40.0256 138.139 38.8466 138.139 37.5057C138.139 36.1534 138.401 34.9716 138.923 33.9602C139.446 32.9432 140.188 32.1534 141.148 31.5909C142.114 31.0227 143.259 30.7386 144.582 30.7386C145.906 30.7386 147.048 31.0227 148.009 31.5909C148.974 32.1534 149.719 32.9432 150.241 33.9602C150.764 34.9716 151.026 36.1534 151.026 37.5057C151.026 38.8466 150.764 40.0256 150.241 41.0426C149.719 42.054 148.974 42.8437 148.009 43.4119C147.048 43.9744 145.906 44.2557 144.582 44.2557ZM144.599 41.4432C145.202 41.4432 145.705 41.2727 146.108 40.9318C146.511 40.5852 146.815 40.1136 147.02 39.517C147.23 38.9205 147.335 38.2415 147.335 37.4801C147.335 36.7188 147.23 36.0398 147.02 35.4432C146.815 34.8466 146.511 34.375 146.108 34.0284C145.705 33.6818 145.202 33.5085 144.599 33.5085C143.991 33.5085 143.48 33.6818 143.065 34.0284C142.656 34.375 142.347 34.8466 142.136 35.4432C141.932 36.0398 141.83 36.7188 141.83 37.4801C141.83 38.2415 141.932 38.9205 142.136 39.517C142.347 40.1136 142.656 40.5852 143.065 40.9318C143.48 41.2727 143.991 41.4432 144.599 41.4432ZM159.284 49.1818C158.108 49.1818 157.099 49.0199 156.259 48.696C155.423 48.3778 154.759 47.9432 154.264 47.392C153.77 46.8409 153.449 46.2216 153.301 45.5341L156.659 45.0824C156.761 45.3438 156.923 45.5881 157.145 45.8153C157.366 46.0426 157.659 46.2244 158.023 46.3608C158.392 46.5028 158.841 46.5739 159.369 46.5739C160.159 46.5739 160.81 46.3807 161.321 45.9943C161.838 45.6136 162.097 44.9744 162.097 44.0767V41.6818H161.943C161.784 42.0455 161.545 42.3892 161.227 42.7131C160.909 43.0369 160.5 43.3011 160 43.5057C159.5 43.7102 158.903 43.8125 158.21 43.8125C157.227 43.8125 156.332 43.5852 155.526 43.1307C154.724 42.6705 154.085 41.9687 153.608 41.0256C153.136 40.0767 152.901 38.8778 152.901 37.429C152.901 35.946 153.142 34.7074 153.625 33.7131C154.108 32.7187 154.75 31.9744 155.551 31.4801C156.358 30.9858 157.241 30.7386 158.202 30.7386C158.935 30.7386 159.548 30.8636 160.043 31.1136C160.537 31.358 160.935 31.6648 161.236 32.0341C161.543 32.3977 161.778 32.7557 161.943 33.108H162.08V30.9091H165.685V44.1278C165.685 45.2415 165.412 46.1733 164.866 46.9233C164.321 47.6733 163.565 48.2358 162.599 48.6108C161.639 48.9915 160.534 49.1818 159.284 49.1818ZM159.361 41.0852C159.946 41.0852 160.44 40.9403 160.844 40.6506C161.253 40.3551 161.565 39.9347 161.781 39.3892C162.003 38.8381 162.114 38.179 162.114 37.4119C162.114 36.6449 162.006 35.9801 161.79 35.4176C161.574 34.8494 161.261 34.4091 160.852 34.0966C160.443 33.7841 159.946 33.6278 159.361 33.6278C158.764 33.6278 158.261 33.7898 157.852 34.1136C157.443 34.4318 157.134 34.875 156.923 35.4432C156.713 36.0114 156.608 36.6676 156.608 37.4119C156.608 38.1676 156.713 38.821 156.923 39.3722C157.139 39.9176 157.449 40.3409 157.852 40.642C158.261 40.9375 158.764 41.0852 159.361 41.0852ZM174.489 44.2557C173.165 44.2557 172.02 43.9744 171.054 43.4119C170.094 42.8437 169.352 42.054 168.83 41.0426C168.307 40.0256 168.045 38.8466 168.045 37.5057C168.045 36.1534 168.307 34.9716 168.83 33.9602C169.352 32.9432 170.094 32.1534 171.054 31.5909C172.02 31.0227 173.165 30.7386 174.489 30.7386C175.812 30.7386 176.955 31.0227 177.915 31.5909C178.881 32.1534 179.625 32.9432 180.148 33.9602C180.67 34.9716 180.932 36.1534 180.932 37.5057C180.932 38.8466 180.67 40.0256 180.148 41.0426C179.625 42.054 178.881 42.8437 177.915 43.4119C176.955 43.9744 175.812 44.2557 174.489 44.2557ZM174.506 41.4432C175.108 41.4432 175.611 41.2727 176.014 40.9318C176.418 40.5852 176.722 40.1136 176.926 39.517C177.136 38.9205 177.241 38.2415 177.241 37.4801C177.241 36.7188 177.136 36.0398 176.926 35.4432C176.722 34.8466 176.418 34.375 176.014 34.0284C175.611 33.6818 175.108 33.5085 174.506 33.5085C173.898 33.5085 173.386 33.6818 172.972 34.0284C172.563 34.375 172.253 34.8466 172.043 35.4432C171.838 36.0398 171.736 36.7188 171.736 37.4801C171.736 38.2415 171.838 38.9205 172.043 39.517C172.253 40.1136 172.563 40.5852 172.972 40.9318C173.386 41.2727 173.898 41.4432 174.506 41.4432ZM124.001 59.9091L119.424 73H115.333L110.757 59.9091H114.592L117.311 69.2756H117.447L120.157 59.9091H124.001ZM129.24 73.2472C128.405 73.2472 127.661 73.1023 127.007 72.8125C126.354 72.517 125.837 72.0824 125.456 71.5085C125.081 70.929 124.894 70.2074 124.894 69.3438C124.894 68.6165 125.027 68.0057 125.294 67.5114C125.561 67.017 125.925 66.6193 126.385 66.3182C126.846 66.017 127.368 65.7898 127.953 65.6364C128.544 65.483 129.164 65.375 129.811 65.3125C130.573 65.233 131.186 65.1591 131.652 65.0909C132.118 65.017 132.456 64.9091 132.667 64.767C132.877 64.625 132.982 64.4148 132.982 64.1364V64.0852C132.982 63.5455 132.811 63.1278 132.471 62.8324C132.135 62.5369 131.658 62.3892 131.039 62.3892C130.385 62.3892 129.865 62.5341 129.479 62.8239C129.093 63.108 128.837 63.4659 128.712 63.8977L125.354 63.625C125.525 62.8295 125.86 62.142 126.36 61.5625C126.86 60.9773 127.505 60.5284 128.294 60.2159C129.09 59.8977 130.01 59.7386 131.056 59.7386C131.783 59.7386 132.479 59.8239 133.144 59.9943C133.814 60.1648 134.408 60.429 134.925 60.7869C135.448 61.1449 135.86 61.6051 136.161 62.1676C136.462 62.7244 136.613 63.392 136.613 64.1705V73H133.169V71.1847H133.067C132.857 71.5938 132.576 71.9545 132.223 72.267C131.871 72.5739 131.448 72.8153 130.953 72.9915C130.459 73.1619 129.888 73.2472 129.24 73.2472ZM130.28 70.7415C130.814 70.7415 131.286 70.6364 131.695 70.4261C132.104 70.2102 132.425 69.9205 132.658 69.5568C132.891 69.1932 133.007 68.7812 133.007 68.321V66.9318C132.894 67.0057 132.738 67.0739 132.539 67.1364C132.346 67.1932 132.127 67.2472 131.882 67.2983C131.638 67.3437 131.394 67.3864 131.15 67.4261C130.905 67.4602 130.684 67.4915 130.485 67.5199C130.059 67.5824 129.686 67.6818 129.368 67.8182C129.05 67.9545 128.803 68.1392 128.627 68.3722C128.451 68.5994 128.363 68.8835 128.363 69.2244C128.363 69.7188 128.542 70.0966 128.9 70.358C129.263 70.6136 129.723 70.7415 130.28 70.7415ZM139.429 73V59.9091H143.06V73H139.429ZM141.253 58.2216C140.713 58.2216 140.25 58.0426 139.864 57.6847C139.483 57.321 139.293 56.8864 139.293 56.3807C139.293 55.8807 139.483 55.4517 139.864 55.0938C140.25 54.7301 140.713 54.5483 141.253 54.5483C141.793 54.5483 142.253 54.7301 142.634 55.0938C143.02 55.4517 143.213 55.8807 143.213 56.3807C143.213 56.8864 143.02 57.321 142.634 57.6847C142.253 58.0426 141.793 58.2216 141.253 58.2216ZM155.256 73.2472C154.421 73.2472 153.676 73.1023 153.023 72.8125C152.37 72.517 151.853 72.0824 151.472 71.5085C151.097 70.929 150.909 70.2074 150.909 69.3438C150.909 68.6165 151.043 68.0057 151.31 67.5114C151.577 67.017 151.941 66.6193 152.401 66.3182C152.861 66.017 153.384 65.7898 153.969 65.6364C154.56 65.483 155.179 65.375 155.827 65.3125C156.588 65.233 157.202 65.1591 157.668 65.0909C158.134 65.017 158.472 64.9091 158.682 64.767C158.892 64.625 158.998 64.4148 158.998 64.1364V64.0852C158.998 63.5455 158.827 63.1278 158.486 62.8324C158.151 62.5369 157.674 62.3892 157.054 62.3892C156.401 62.3892 155.881 62.5341 155.495 62.8239C155.108 63.108 154.853 63.4659 154.728 63.8977L151.37 63.625C151.54 62.8295 151.875 62.142 152.375 61.5625C152.875 60.9773 153.52 60.5284 154.31 60.2159C155.105 59.8977 156.026 59.7386 157.071 59.7386C157.799 59.7386 158.495 59.8239 159.159 59.9943C159.83 60.1648 160.424 60.429 160.941 60.7869C161.463 61.1449 161.875 61.6051 162.176 62.1676C162.478 62.7244 162.628 63.392 162.628 64.1705V73H159.185V71.1847H159.083C158.873 71.5938 158.591 71.9545 158.239 72.267C157.887 72.5739 157.463 72.8153 156.969 72.9915C156.475 73.1619 155.904 73.2472 155.256 73.2472ZM156.296 70.7415C156.83 70.7415 157.301 70.6364 157.711 70.4261C158.12 70.2102 158.441 69.9205 158.674 69.5568C158.907 69.1932 159.023 68.7812 159.023 68.321V66.9318C158.909 67.0057 158.753 67.0739 158.554 67.1364C158.361 67.1932 158.142 67.2472 157.898 67.2983C157.654 67.3437 157.409 67.3864 157.165 67.4261C156.921 67.4602 156.699 67.4915 156.5 67.5199C156.074 67.5824 155.702 67.6818 155.384 67.8182C155.066 67.9545 154.819 68.1392 154.642 68.3722C154.466 68.5994 154.378 68.8835 154.378 69.2244C154.378 69.7188 154.557 70.0966 154.915 70.358C155.279 70.6136 155.739 70.7415 156.296 70.7415ZM174.096 77.9091V70.9034H173.985C173.814 71.267 173.573 71.6278 173.26 71.9858C172.953 72.3381 172.553 72.6307 172.059 72.8636C171.57 73.0966 170.973 73.2131 170.269 73.2131C169.275 73.2131 168.374 72.9574 167.567 72.446C166.766 71.929 166.13 71.1705 165.658 70.1705C165.192 69.1648 164.959 67.9318 164.959 66.4716C164.959 64.9716 165.201 63.7244 165.684 62.7301C166.167 61.7301 166.809 60.983 167.61 60.4886C168.417 59.9886 169.3 59.7386 170.26 59.7386C170.993 59.7386 171.604 59.8636 172.093 60.1136C172.587 60.358 172.985 60.6648 173.286 61.0341C173.593 61.3977 173.826 61.7557 173.985 62.108H174.138V59.9091H177.718V77.9091H174.096ZM171.419 70.3239C172.005 70.3239 172.499 70.1648 172.902 69.8466C173.311 69.5227 173.624 69.071 173.84 68.4915C174.061 67.9119 174.172 67.233 174.172 66.4545C174.172 65.6761 174.064 65 173.848 64.4261C173.632 63.8523 173.32 63.4091 172.911 63.0966C172.502 62.7841 172.005 62.6278 171.419 62.6278C170.823 62.6278 170.32 62.7898 169.911 63.1136C169.502 63.4375 169.192 63.8864 168.982 64.4602C168.772 65.0341 168.667 65.6989 168.667 66.4545C168.667 67.2159 168.772 67.8892 168.982 68.4744C169.198 69.054 169.507 69.5085 169.911 69.8381C170.32 70.1619 170.823 70.3239 171.419 70.3239ZM189.027 67.4261V59.9091H192.658V73H189.172V70.6222H189.036C188.74 71.3892 188.249 72.0057 187.561 72.4716C186.88 72.9375 186.047 73.1705 185.064 73.1705C184.189 73.1705 183.419 72.9716 182.755 72.5739C182.09 72.1761 181.57 71.6108 181.195 70.8778C180.826 70.1449 180.638 69.267 180.632 68.2443V59.9091H184.263V67.5966C184.269 68.3693 184.476 68.9801 184.885 69.429C185.294 69.8778 185.843 70.1023 186.53 70.1023C186.968 70.1023 187.377 70.0028 187.757 69.804C188.138 69.5994 188.445 69.2983 188.678 68.9006C188.917 68.5028 189.033 68.0114 189.027 67.4261ZM195.562 73V59.9091H199.193V73H195.562ZM197.386 58.2216C196.846 58.2216 196.383 58.0426 195.997 57.6847C195.616 57.321 195.426 56.8864 195.426 56.3807C195.426 55.8807 195.616 55.4517 195.997 55.0938C196.383 54.7301 196.846 54.5483 197.386 54.5483C197.926 54.5483 198.386 54.7301 198.767 55.0938C199.153 55.4517 199.346 55.8807 199.346 56.3807C199.346 56.8864 199.153 57.321 198.767 57.6847C198.386 58.0426 197.926 58.2216 197.386 58.2216Z" fill="white"/>
</svg>
