<svg width="419" height="418" viewBox="0 0 419 418" fill="none" xmlns="http://www.w3.org/2000/svg">
<path d="M209.956 418C263.221 418 311.86 398.012 348.762 365.197L303.754 320.2C278.439 341.58 245.715 354.457 209.956 354.457C129.587 354.457 64.4367 289.323 64.4367 208.975C64.4367 128.627 129.587 63.493 209.956 63.493C245.814 63.493 278.588 76.4701 303.952 97.9493L348.961 52.9523C312.009 20.0373 263.32 0 209.907 0C94.4756 0 0.877441 93.5739 0.877441 208.975C0.877441 324.376 94.4756 417.95 209.907 417.95L209.956 418Z" fill="white"/>
<path d="M209.956 332.083C239.498 332.083 266.603 321.642 287.839 304.289L240.642 257.105C231.789 262.773 221.246 266.104 209.907 266.104C178.326 266.104 152.763 240.498 152.763 208.975C152.763 177.452 178.376 151.846 209.907 151.846C221.345 151.846 231.938 155.227 240.89 160.995L288.038 113.86C266.802 96.408 239.597 85.917 209.907 85.917C141.921 85.917 86.8167 141.007 86.8167 208.975C86.8167 276.943 141.921 332.033 209.907 332.033L209.956 332.083Z" fill="white"/>
<path d="M418.986 208.975C418.986 155.675 398.993 107.098 366.169 70.1556L257.999 178.298C263.668 187.198 267.05 197.689 267.05 209.025C267.05 220.361 263.668 231.101 257.85 240.001L365.92 348.043C398.893 311.101 418.936 262.425 418.936 209.025L418.986 208.975Z" fill="white"/>
<path d="M418.986 208.975C418.986 155.675 398.993 107.098 366.169 70.1556L257.999 178.298C263.668 187.198 267.05 197.689 267.05 209.025C267.05 220.361 263.668 231.101 257.85 240.001L365.92 348.043C398.893 311.101 418.936 262.425 418.936 209.025L418.986 208.975Z" fill="#5E94C6"/>
<path d="M209.658 240.896C227.292 240.896 241.587 226.604 241.587 208.975C241.587 191.346 227.292 177.055 209.658 177.055C192.024 177.055 177.729 191.346 177.729 208.975C177.729 226.604 192.024 240.896 209.658 240.896Z" fill="white"/>
<path d="M209.658 240.896C227.292 240.896 241.587 226.604 241.587 208.975C241.587 191.346 227.292 177.055 209.658 177.055C192.024 177.055 177.729 191.346 177.729 208.975C177.729 226.604 192.024 240.896 209.658 240.896Z" fill="#5E94C6"/>
</svg>
