<?xml version="1.0" encoding="UTF-8"?>
<svg xmlns="http://www.w3.org/2000/svg" xmlns:xlink="http://www.w3.org/1999/xlink" viewBox="0 0 384.56 85.46">
  <defs>
    <style>
      .cls-1 {
        fill: url(#linear-gradient);
      }

      .cls-1, .cls-2, .cls-3, .cls-4, .cls-5, .cls-6, .cls-7 {
        stroke-width: 0px;
      }

      .cls-8 {
        isolation: isolate;
      }

      .cls-2 {
        fill: url(#Nova_amostra_de_gradiente_1);
      }

      .cls-3 {
        fill: url(#linear-gradient-4);
        mix-blend-mode: multiply;
      }

      .cls-4 {
        fill: url(#linear-gradient-2);
      }

      .cls-5 {
        fill: url(#linear-gradient-3);
      }

      .cls-6 {
        fill: url(#Gradiente_sem_nome_9);
      }

      .cls-7 {
        fill: #fff;
      }
    </style>
    <linearGradient id="Nova_amostra_de_gradiente_1" data-name="Nova amostra de gradiente 1" x1="0" y1="42.73" x2="384.56" y2="42.73" gradientUnits="userSpaceOnUse">
      <stop offset=".22" stop-color="#ea541e"/>
      <stop offset=".7" stop-color="#ef7631"/>
      <stop offset=".85" stop-color="#f18339"/>
    </linearGradient>
    <linearGradient id="Gradiente_sem_nome_9" data-name="Gradiente sem nome 9" x1="7.59" y1="42.73" x2="376.97" y2="42.73" gradientUnits="userSpaceOnUse">
      <stop offset=".19" stop-color="#e5352b"/>
      <stop offset=".27" stop-color="#bb512d"/>
      <stop offset=".44" stop-color="#539833"/>
      <stop offset=".48" stop-color="#3aaa35"/>
      <stop offset=".53" stop-color="#2ca537"/>
      <stop offset=".62" stop-color="#0a993d"/>
      <stop offset=".65" stop-color="#009640"/>
      <stop offset=".69" stop-color="#089873"/>
      <stop offset=".73" stop-color="#0e999f"/>
      <stop offset=".77" stop-color="#139abe"/>
      <stop offset=".8" stop-color="#169bd2"/>
      <stop offset=".82" stop-color="#189cd9"/>
    </linearGradient>
    <linearGradient id="linear-gradient" x1="305.31" y1="42.73" x2="354.83" y2="42.73" gradientUnits="userSpaceOnUse">
      <stop offset="0" stop-color="#2360ab"/>
      <stop offset=".25" stop-color="#09478a"/>
      <stop offset=".75" stop-color="#2261ac"/>
      <stop offset="1" stop-color="#8bb8e4"/>
    </linearGradient>
    <linearGradient id="linear-gradient-2" x1="351.13" y1="60.63" x2="279.35" y2="70.12" xlink:href="#linear-gradient"/>
    <linearGradient id="linear-gradient-3" x1="307.46" y1="21.17" x2="353.65" y2="21.17" xlink:href="#linear-gradient"/>
    <linearGradient id="linear-gradient-4" x1="309.89" y1="34.25" x2="332.92" y2="8.2" gradientUnits="userSpaceOnUse">
      <stop offset="0" stop-color="#010101"/>
      <stop offset="1" stop-color="#010101" stop-opacity="0"/>
    </linearGradient>
  </defs>
  <g class="cls-8">
    <g id="Camada_2" data-name="Camada 2">
      <g id="Camada_1-2" data-name="Camada 1">
        <g>
          <rect class="cls-2" x="0" y="0" width="384.56" height="85.46" rx="42.73" ry="42.73"/>
          <path class="cls-6" d="M341.26,79.27H43.3c-19.69,0-35.71-16.39-35.71-36.54S23.61,6.19,43.3,6.19h297.96c19.69,0,35.71,16.39,35.71,36.54s-16.02,36.54-35.71,36.54ZM43.3,6.82C23.95,6.82,8.22,22.93,8.22,42.73s15.74,35.91,35.08,35.91h297.96c19.35,0,35.08-16.11,35.08-35.91s-15.74-35.91-35.08-35.91H43.3Z"/>
          <g>
            <path class="cls-7" d="M42.24,32.49v5.28h14.66v7.67h-14.66v5.32h16.61v7.67h-25.82V24.82h25.37v7.67h-16.16Z"/>
            <path class="cls-7" d="M86.67,58.43l-.04-19.9-6.24,16.59h-6.02l-6.24-16.59v19.9h-8.1V24.82h9.87l7.48,18.61,7.48-18.61h9.87v33.62h-8.06Z"/>
            <path class="cls-7" d="M105.58,32.49v5.28h14.66v7.67h-14.66v5.32h16.61v7.67h-25.82V24.82h25.37v7.67h-16.16Z"/>
            <path class="cls-7" d="M137.59,49.37h-4.87v9.06h-9.21V24.82h14.48c8.33,0,13.11,4.32,13.11,11.94,0,4.99-1.86,8.63-5.23,10.69l6.29,10.98h-10.45l-4.12-9.06ZM137.99,41.7c2.75,0,4.34-1.63,4.34-4.65s-1.59-4.56-4.34-4.56h-5.27v9.21h5.27Z"/>
            <path class="cls-7" d="M182.03,41.03v13.52c-3.37,2.49-8.86,4.32-13.28,4.32-9.61,0-16.69-7.34-16.69-17.22s7.31-17.12,17.31-17.12c4.74,0,9.83,1.97,13.11,5.08l-5.23,6.86c-2.13-2.21-5.23-3.64-7.93-3.64-4.47,0-7.84,3.79-7.84,8.82s3.41,8.87,7.93,8.87c1.28,0,3.01-.48,4.69-1.29v-8.2h7.93Z"/>
            <path class="cls-7" d="M192.71,32.49v5.28h14.66v7.67h-14.66v5.32h16.61v7.67h-25.82V24.82h25.37v7.67h-16.16Z"/>
            <path class="cls-7" d="M232.25,58.43l-13.15-18.7v18.7h-8.46V24.82h7.88l13.15,18.8v-18.8h8.41v33.62h-7.84Z"/>
            <path class="cls-7" d="M271.13,30.47l-5.31,6.81c-1.95-2.69-4.83-4.46-7.4-4.46-4.21,0-7.4,3.69-7.4,8.63s3.19,8.68,7.4,8.68c2.39,0,5.27-1.53,7.4-3.88l5.31,6.14c-3.37,3.93-8.46,6.47-13.15,6.47-9.43,0-16.38-7.39-16.38-17.31s7.09-17.02,16.69-17.02c4.69,0,9.7,2.3,12.84,5.95Z"/>
            <path class="cls-7" d="M290.07,58.43h-9.21v-10.45l-11.38-23.16h9.21l6.78,13.72,6.6-13.72h9.17l-11.16,22.97v10.65Z"/>
          </g>
          <g>
            <g>
              <path class="cls-1" d="M351.93,46.16c-1.93-2.65-4.22-4.66-6.87-6.05-2.65-1.39-5.99-2.8-10.03-4.25-1.94-.67-3.6-1.3-4.99-1.9-1.25-.54-2.29-1.05-3.1-1.54,0,0,0,0-.02,0-1.7-1.03-2.56-2.44-2.56-4.24,0-1.33.33-2.34.98-3.06.06-.07.12-.13.19-.19.78-.72,1.87-1.08,3.25-1.08,1.63,0,2.94.48,3.93,1.44.99.96,1.61,2.44,1.85,4.43h19.07c-.42-6.26-2.81-11.13-7.18-14.59-4.37-3.46-10.23-5.2-17.57-5.2-4.52,0-8.56.74-12.11,2.22-2.84,1.18-5.2,2.8-7.07,4.86-.48.52-.92,1.07-1.33,1.64-.33.47-.64.95-.92,1.44-1.44,2.55-2.15,5.48-2.15,8.81,0,4.16.95,7.56,2.85,10.21,1.24,1.73,2.63,3.18,4.18,4.34.82.63,1.69,1.16,2.59,1.62,2.62,1.33,5.95,2.68,9.99,4.07,1.76.59,3.29,1.15,4.61,1.69h0c1.53.63,2.76,1.22,3.7,1.79,1.75,1.06,2.62,2.55,2.62,4.48,0,1.44-.44,2.56-1.31,3.34-.88.78-2.1,1.18-3.66,1.18-1.75,0-3.22-.54-4.43-1.63-1.21-1.08-1.9-2.74-2.08-4.97h-18.89c.42,6.57,3.03,11.63,7.82,15.18,4.79,3.55,10.89,5.33,18.3,5.33,4.88,0,9.06-.84,12.56-2.53,3.49-1.69,6.14-3.98,7.95-6.87.59-.93,1.07-1.9,1.47-2.9.83-2.11,1.25-4.36,1.25-6.77,0-4.22-.96-7.65-2.89-10.3Z"/>
              <path class="cls-4" d="M353.58,63.23c-.39,1-.88,1.97-1.47,2.9-1.81,2.89-4.46,5.18-7.95,6.87-3.5,1.69-7.68,2.53-12.56,2.53-7.41,0-13.51-1.78-18.3-5.33-4.79-3.55-7.4-8.62-7.82-15.18h18.89c.18,2.23.87,3.88,2.08,4.97,1.2,1.09,2.68,1.63,4.43,1.63,1.56,0,2.78-.39,3.66-1.18.87-.78,1.31-1.9,1.31-3.34,0-1.93-.87-3.42-2.62-4.48-.94-.56-2.17-1.16-3.7-1.79.3.08,14.59,3.94,24.05,12.4Z"/>
              <path class="cls-5" d="M353.65,29.72h-19.07c-.24-1.99-.86-3.46-1.85-4.43-1-.96-2.31-1.44-3.93-1.44-.21,0-.42,0-.62.03-1.1.09-1.97.44-2.64,1.05-.78.72-1.17,1.81-1.17,3.25,0,1.8.85,3.21,2.56,4.24-.52-.22-13.76-5.9-19.47-12.33.28-.5.58-.98.92-1.44,2.05-2.86,4.85-5.03,8.4-6.51,1.44-.6,2.97-1.08,4.58-1.43,2.34-.52,4.85-.78,7.54-.78,7.35,0,13.2,1.74,17.57,5.2,4.37,3.47,6.76,8.33,7.18,14.59Z"/>
            </g>
            <path class="cls-3" d="M326.94,32.42c-.52-.22-13.76-5.9-19.47-12.33.28-.5.58-.98.92-1.44,2.05-2.86,4.85-5.03,8.4-6.51,1.44-.6,2.97-1.08,4.58-1.43,2.43,2.74,4.1,6.06,5.49,9.44.5,1.22.97,2.46,1.33,3.73-1.1.09-1.97.44-2.64,1.05-.78.72-1.17,1.81-1.17,3.25,0,1.8.85,3.21,2.56,4.24Z"/>
          </g>
        </g>
      </g>
    </g>
  </g>
</svg>