<svg width="342" height="287" viewBox="0 0 342 287" fill="none" xmlns="http://www.w3.org/2000/svg">
<path d="M234.51 0.0497208C298.815 0.0497208 324.229 29.5837 324.229 84.8231V109.783C324.229 154.83 307.469 182.275 266.538 191.275L332.535 274.805L341.536 286.639H276.386C260.272 285.644 251.718 281.517 244.705 273.413L189.949 198.981H75.3137V257.552C75.0153 276.496 64.82 286.539 45.6229 286.539H41.9426V286.738H0.763428L0.614258 0.0994415H234.51V0V0.0497208ZM80.0882 66.526C76.8058 66.526 75.2142 68.1668 75.2142 71.8461V140.659H219.789C242.318 140.659 249.729 131.66 249.679 112.418V94.8169C249.679 75.5751 242.269 66.5757 219.789 66.5757H80.0882V66.526Z" fill="white"/>
</svg>
