<svg width="610" height="153" viewBox="0 0 610 153" fill="none" xmlns="http://www.w3.org/2000/svg">
<path d="M413.853 1.34998C384.403 1.34998 360.533 25.35 360.533 54.96C360.533 84.57 384.403 108.57 413.853 108.57C443.303 108.57 467.173 84.57 467.173 54.96C467.173 25.35 443.303 1.34998 413.853 1.34998ZM413.853 74.19C403.293 74.19 394.723 65.58 394.723 54.96C394.723 44.34 403.283 35.73 413.853 35.73C424.423 35.73 432.983 44.34 432.983 54.96C432.983 65.58 424.423 74.19 413.853 74.19Z" fill="white"/>
<path d="M413.893 67.84C406.823 67.84 401.093 62.08 401.093 54.97C401.093 47.86 406.823 42.1 413.893 42.1C420.963 42.1 426.703 47.86 426.703 54.97C426.703 62.08 420.963 67.84 413.893 67.84Z" fill="white"/>
<path d="M52.8331 2.94006C49.2331 2.94006 47.633 5.23005 48.623 8.77005L54.943 29.3501L62.7831 2.94006H52.823H52.8331Z" fill="white"/>
<path d="M52.8331 2.94006C49.2331 2.94006 47.633 5.23005 48.623 8.77005L54.943 29.3501L62.7831 2.94006H52.823H52.8331Z" fill="white"/>
<path d="M136.613 2.94C140.213 2.94 141.813 5.22999 140.813 8.76999L111.983 102.62C111.183 105.53 108.983 106.99 106.183 106.99H84.3329C81.5329 106.99 79.3329 105.53 78.5329 102.62L69.2829 72.08L59.9428 102.62C59.1428 105.53 56.9429 106.99 54.1429 106.99H34.9229C32.1229 106.99 29.9129 105.53 29.1129 102.62L0.292882 8.76999C-0.707118 5.22999 0.892834 2.94 4.49283 2.94H26.1129C28.9129 2.94 30.9129 4.19 31.7129 7.31L47.2829 67.64L58.6629 29.37L66.4928 2.92999H72.1529C74.9529 2.92999 76.9529 4.39002 77.7629 7.30002L94.7329 64.11L109.393 7.30002C110.193 4.18002 111.993 2.92999 115.003 2.92999H136.623L136.613 2.94ZM578.213 0.0299988C597.833 0.0299988 609.243 12.93 609.243 36.86V101.79C609.243 105.12 607.443 107 604.233 107H584.213C581.013 107 579.213 105.13 579.213 101.79V39.57C579.213 31.25 574.403 28.75 568.803 28.75C562.793 28.75 557.193 31.87 557.193 42.06V101.78C557.193 105.11 555.393 106.99 552.193 106.99H532.173C528.973 106.99 527.173 105.12 527.173 101.78V39.56C527.173 31.24 522.363 28.74 516.763 28.74C510.753 28.74 505.153 31.86 505.153 42.05V101.77C505.153 105.1 503.353 106.98 500.143 106.98H480.123C476.923 106.98 475.113 105.11 475.113 101.77V8.13C475.113 4.8 476.913 2.92999 480.123 2.92999H500.143C503.353 2.92999 505.153 4.8 505.153 8.13V12.37C509.743 5.17 517.713 0.0100098 528.173 0.0100098C538.633 0.0100098 546.343 4.26001 551.383 12.39C557.873 5.17001 566.213 0 578.223 0L578.213 0.0299988ZM234.703 76.61C237.053 76.61 238.723 77.68 239.153 79.35C230.323 96.7 212.383 108.58 191.673 108.58C173.343 108.58 157.183 99.28 147.583 85.12C142.433 76.54 139.623 66.22 139.623 54.96C139.623 42.73 143.063 31.62 149.143 22.62C158.873 9.7 174.303 1.35001 191.663 1.35001C211.353 1.35001 228.533 12.09 237.773 28.05C241.593 35.9 243.713 45.04 243.713 54.96C243.713 57.67 243.513 60.16 243.313 62.66C242.913 65.99 240.913 67.44 237.913 67.44H171.063C174.703 79.8 184.043 84.71 194.473 84.71C200.083 84.71 205.683 82.63 209.283 79.51C211.283 77.84 212.883 76.8 215.493 76.8L234.713 76.59L234.703 76.61ZM193.063 27.71C181.813 27.71 174.023 33.35 170.933 43.73H213.823C210.723 31.89 201.903 27.71 193.063 27.71ZM349.403 67.45C352.803 67.45 354.803 69.74 353.603 73.28C346.003 94 326.443 108.58 303.493 108.58C286.113 108.58 270.683 100.21 260.943 87.27C254.833 78.28 251.303 67.18 251.303 54.96C251.303 42.74 254.823 31.64 260.943 22.65C270.683 9.70999 286.113 1.35001 303.493 1.35001C326.443 1.35001 346.003 15.93 353.523 36.38C354.813 40.19 352.803 42.47 349.403 42.47H327.383C324.783 42.47 322.973 41.22 321.373 38.93C317.773 33.73 311.563 30.81 304.353 30.81C291.343 30.81 281.333 40.59 281.333 54.95C281.333 69.31 291.343 79.09 304.353 79.09C311.563 79.09 317.763 76.18 321.373 71.18C322.973 68.69 324.583 67.44 327.383 67.44H349.403V67.45Z" fill="white"/>
<path d="M209.843 127.55L208.023 127.24L208.113 126.7C208.413 124.96 209.453 123.3 210.913 122.26C213.213 120.62 216.363 120.01 219.353 120.63C221.973 121.18 224.153 122.62 225.343 124.61L225.623 125.08L224.053 126.02C223.433 126.39 222.643 126.26 222.183 125.72C221.393 124.79 220.163 124.1 218.703 123.8C216.573 123.36 214.373 123.77 212.793 124.89C212.213 125.3 211.733 125.93 211.473 126.62C211.253 127.2 210.693 127.58 210.083 127.58C210.003 127.58 209.923 127.58 209.843 127.56V127.55ZM44.1532 132.43C43.2132 132.09 42.2632 131.85 41.3032 131.61C40.8832 131.51 40.4532 131.4 40.0332 131.28L39.5032 131.14L39.0432 132.82C38.9332 133.21 38.9932 133.61 39.1932 133.95C39.3932 134.3 39.7232 134.54 40.1032 134.64L40.5432 134.75C41.4232 134.97 42.2632 135.18 43.0532 135.47C45.6232 136.4 46.9632 138.08 46.6332 139.96C46.2732 142.01 43.9432 144.08 40.1732 144.08C37.8332 144.08 35.6632 143.16 34.5032 141.68C34.0532 141.11 33.2732 140.96 32.6332 141.31L31.0332 142.2L31.3032 142.68C32.8732 145.49 36.3632 147.3 40.1732 147.3C45.7232 147.3 49.2232 143.89 49.8232 140.51C50.3032 137.77 49.0632 134.2 44.1532 132.43ZM189.133 134.15C189.133 141.75 182.943 147.94 175.343 147.94C167.743 147.94 161.553 141.75 161.553 134.15C161.553 126.55 167.743 120.36 175.343 120.36C182.943 120.36 189.133 126.55 189.133 134.15ZM175.343 123.48C169.463 123.48 164.673 128.26 164.673 134.15C164.673 140.04 169.463 144.82 175.343 144.82C181.223 144.82 186.013 140.04 186.013 134.15C186.013 128.26 181.223 123.48 175.343 123.48ZM220.433 133.07C219.473 132.72 218.513 132.48 217.583 132.25C217.163 132.15 216.733 132.04 216.313 131.92L215.783 131.78L215.323 133.46C215.213 133.85 215.273 134.25 215.473 134.59C215.673 134.94 216.003 135.18 216.383 135.28L216.833 135.39C217.713 135.61 218.543 135.82 219.333 136.11C221.903 137.04 223.243 138.72 222.913 140.6C222.553 142.65 220.223 144.72 216.453 144.72C214.113 144.72 211.943 143.8 210.783 142.32C210.343 141.76 209.543 141.6 208.913 141.95L207.313 142.85L207.583 143.32C209.153 146.13 212.643 147.94 216.453 147.94C222.003 147.94 225.503 144.53 226.093 141.15C226.573 138.41 225.333 134.84 220.423 133.07H220.433ZM33.8032 126.94C34.4032 126.94 34.9632 126.56 35.1832 125.98C35.4432 125.3 35.9232 124.67 36.5032 124.25C38.0732 123.12 40.2832 122.72 42.4132 123.16C43.8632 123.46 45.1032 124.14 45.8932 125.08C46.3632 125.63 47.1432 125.76 47.7632 125.39L49.3332 124.45L49.0532 123.98C47.8732 122 45.6832 120.55 43.0632 120C40.0732 119.37 36.9132 119.99 34.6232 121.63C33.1632 122.67 32.1232 124.33 31.8232 126.07L31.7332 126.61L33.5532 126.92C33.6332 126.93 33.7132 126.94 33.7932 126.94H33.8032ZM95.5732 134.15C95.5732 141.75 89.3832 147.94 81.7832 147.94C74.1832 147.94 67.9932 141.75 67.9932 134.15C67.9932 126.55 74.1832 120.36 81.7832 120.36C89.3832 120.36 95.5732 126.55 95.5732 134.15ZM81.7832 123.48C75.9032 123.48 71.1132 128.26 71.1132 134.15C71.1132 140.04 75.9032 144.82 81.7832 144.82C87.6632 144.82 92.4532 140.04 92.4532 134.15C92.4532 128.26 87.6632 123.48 81.7832 123.48ZM509.103 123.34C510.593 123.34 512.093 123.66 513.453 124.26C514.153 124.57 514.983 124.29 515.343 123.61L516.153 122.12L515.673 121.86C513.663 120.78 511.393 120.2 509.103 120.2C501.453 120.2 495.233 126.42 495.233 134.07C495.233 141.72 501.453 147.94 509.103 147.94C511.393 147.94 513.673 147.37 515.673 146.28L516.153 146.02L515.343 144.53C514.983 143.86 514.153 143.57 513.453 143.88C512.093 144.48 510.583 144.8 509.103 144.8C503.183 144.8 498.373 139.99 498.373 134.07C498.373 128.15 503.183 123.34 509.103 123.34ZM552.513 121.45H551.553C550.953 121.45 550.413 121.81 550.183 122.37L539.853 147.94H542.243C542.843 147.94 543.383 147.58 543.613 147.02L552.073 126.08L556.443 136.21H551.823C551.013 136.21 550.353 136.87 550.353 137.68V139.34H561.213L553.863 122.33C553.633 121.79 553.103 121.44 552.513 121.44V121.45ZM609.243 134.15C609.243 141.75 603.053 147.94 595.453 147.94C587.853 147.94 581.663 141.75 581.663 134.15C581.663 126.55 587.853 120.36 595.453 120.36C603.053 120.36 609.243 126.55 609.243 134.15ZM595.453 123.48C589.573 123.48 584.783 128.26 584.783 134.15C584.783 140.04 589.563 144.82 595.453 144.82C601.343 144.82 606.123 140.04 606.123 134.15C606.123 128.26 601.333 123.48 595.453 123.48ZM333.403 122.94V142.61L318.133 122.04C317.853 121.67 317.413 121.45 316.953 121.45H315.183V139.35H316.923C317.733 139.35 318.393 138.69 318.393 137.88V127.8L332.913 147.35C333.193 147.72 333.633 147.95 334.093 147.95H336.623V121.48H334.883C334.073 121.48 333.413 122.14 333.413 122.95L333.403 122.94ZM288.583 122.92V147.94H290.283C291.093 147.94 291.753 147.28 291.753 146.47V121.45H290.053C289.243 121.45 288.583 122.11 288.583 122.92ZM384.613 134.15C384.613 141.75 378.423 147.94 370.823 147.94C363.223 147.94 357.033 141.75 357.033 134.15C357.033 126.55 363.223 120.36 370.823 120.36C378.423 120.36 384.613 126.55 384.613 134.15ZM370.823 123.48C364.943 123.48 360.153 128.26 360.153 134.15C360.153 140.04 364.933 144.82 370.823 144.82C376.713 144.82 381.493 140.04 381.493 134.15C381.493 128.26 376.703 123.48 370.823 123.48ZM424.103 122.37L415.763 143.25L407.393 122.37C407.163 121.81 406.633 121.44 406.023 121.44H403.643L413.893 147.01C414.123 147.57 414.653 147.94 415.263 147.94H416.273C416.883 147.94 417.413 147.58 417.643 147.01L427.853 121.45H425.473C424.863 121.45 424.333 121.81 424.103 122.38V122.37ZM511.503 151.6V150.78C511.503 150.45 511.243 150.19 510.913 150.19H503.753C503.423 150.19 503.163 150.45 503.163 150.78V151.6C503.163 151.93 503.423 152.19 503.753 152.19H510.913C511.243 152.19 511.503 151.93 511.503 151.6ZM555.883 118.71V117.89C555.883 117.56 555.623 117.3 555.293 117.3H548.133C547.803 117.3 547.543 117.56 547.543 117.89V118.71C547.543 119.04 547.803 119.3 548.133 119.3H555.293C555.623 119.3 555.883 119.04 555.883 118.71ZM255.293 129.92C252.663 129.92 250.523 132.06 250.523 134.69C250.523 137.32 252.663 139.46 255.293 139.46C257.923 139.46 260.063 137.32 260.063 134.69C260.063 132.06 257.923 129.92 255.293 129.92ZM139.563 122.62C139.423 121.94 138.813 121.45 138.123 121.45H137.843C137.333 121.45 136.843 121.72 136.583 122.16L128.193 135.98L119.903 122.31C119.643 121.87 119.153 121.6 118.643 121.6H118.363C117.673 121.6 117.063 122.09 116.923 122.77L113.343 140.01H115.253C115.893 140.01 116.443 139.56 116.573 138.93L119.153 126.92L126.933 140.08C127.203 140.53 127.673 140.79 128.193 140.79C128.713 140.79 129.183 140.52 129.453 140.08L137.263 127.22L141.343 146.75C141.483 147.43 142.083 147.92 142.783 147.92H144.863L139.573 122.6L139.563 122.62ZM457.353 122.34L450.003 139.35H460.863V137.69C460.863 136.88 460.203 136.21 459.393 136.21H454.773L459.143 126.08L467.603 147.02C467.833 147.58 468.363 147.94 468.973 147.94H471.363L461.033 122.37C460.803 121.81 460.273 121.45 459.663 121.45H458.703C458.113 121.45 457.583 121.8 457.353 122.34Z" fill="white"/>
</svg>
